<svg id="Layer_1" data-name="Layer 1" xmlns="http://www.w3.org/2000/svg" viewBox="0 0 1864.9 1864.9"><defs><style>.cls-2{fill:#e21e26}.cls-3{fill:#1d1e1b}</style></defs><circle cx="932.45" cy="932.45" r="927.37" fill="#fff"/><path class="cls-2" d="M427.75 803.03v58.9H183.34v255.26H119.5V803.03h308.25z"/><path class="cls-2" d="M211.67 937.04h106.46v52.1H211.67z"/><path class="cls-2" d="M848.27 1031.56a100.5 100.5 0 0 1-6.73 37.06 80.08 80.08 0 0 1-20.26 29.61c-9 8.29-20.36 14.84-33.86 19.46s-29.38 6.94-47.36 6.94H482.58v-58.9h257.48c15.25 0 27.07-3.52 35.16-10.47s12-16 12-27.51c0-12.64-3.9-21.82-11.93-28.06s-20-9.48-35.24-9.48H583.76c-16.12 0-31-2.27-44.07-6.73s-24.5-10.79-33.58-18.77A83.16 83.16 0 0 1 484.9 936a88.09 88.09 0 0 1-7.46-36.31 90.43 90.43 0 0 1 7-35.62 76.75 76.75 0 0 1 20.78-28.34c9.08-7.81 20.45-14.06 33.8-18.54s28.67-6.72 45.7-6.72h246.71v58.9H584.7c-13 0-23.21 3.16-30.21 9.39s-10.41 14.75-10.41 26 3.47 19.71 10.61 25.79 17.09 9.2 29.55 9.2h155.82c35 0 62.1 7.63 80.41 22.69s27.8 38.44 27.8 69.12zm134.11-104.1a98.22 98.22 0 0 0-7.75 39.45 100.29 100.29 0 0 0 7.75 39.46 93.41 93.41 0 0 0 21.44 31.3 100.12 100.12 0 0 0 32.67 20.56 112.63 112.63 0 0 0 41.46 7.48h186.81v58.9h-186.81c-23.92 0-46.35-4.13-66.67-12.3a167.41 167.41 0 0 1-53.17-33.68 151.71 151.71 0 0 1-35.2-50.8 160.25 160.25 0 0 1-12.59-63.5c0-22.93 4.24-44.16 12.6-63.1a140.73 140.73 0 0 1 35.24-48.7 161.49 161.49 0 0 1 53.21-31.1c20.3-7.3 42.7-11 66.58-11h186.81v58.9h-186.81a115.38 115.38 0 0 0-41.48 7.29 99.25 99.25 0 0 0-32.67 20.13 92.29 92.29 0 0 0-21.42 30.71zm784.74 197.16h-77.41l-59.3-85.66-1.08-1.57h-1.91l-137.35-.28 33.64-57.11 64.57-.1h6.72l-3.71-5.66-52.64-80.34-3.07-4.68-3 4.69-150.06 230.67h-73.72l198.11-299.88v-.06a44.69 44.69 0 0 1 12.82-13.38 32.09 32.09 0 0 1 18.2-5.1c7 0 13.07 1.72 18 5.11a46.58 46.58 0 0 1 12.6 13.46z" transform="translate(-7.43 -7.43)"/><path class="cls-3" d="M939.88 7.43C424.9 7.43 7.43 424.9 7.43 939.88s417.47 932.45 932.45 932.45 932.45-417.47 932.45-932.45S1454.86 7.43 939.88 7.43zm750 1438.1a907.14 907.14 0 0 1-397.94 327.71c-111.48 47.15-229.92 71.06-352 71.06s-240.55-23.91-352-71.06a907.14 907.14 0 0 1-481.32-481.32c-47.15-111.48-71.06-229.92-71.06-352s23.91-240.55 71.06-352a907.14 907.14 0 0 1 481.23-481.39c111.48-47.15 229.92-71.06 352-71.06s240.55 23.91 352 71.06a907.14 907.14 0 0 1 481.32 481.32c47.15 111.48 71.06 229.92 71.06 352s-23.91 240.55-71.06 352a904.41 904.41 0 0 1-83.32 153.68z" transform="translate(-7.43 -7.43)"/><path class="cls-3" d="M1447.58 1512.42a28.27 28.27 0 0 0-8-6.84 23.59 23.59 0 0 0-18.69-2.14 25.3 25.3 0 0 0-8.9 4.8l-25.05 20.49 32.86 40.17 25.05-20.49a24.67 24.67 0 0 0 6.44-7.81 24 24 0 0 0 1.47-18.92 28.69 28.69 0 0 0-5.18-9.26zm-977.25 4.85a25.33 25.33 0 0 0-6.38-7.85l-24.81-20.78-33.32 39.78 24.81 20.78a24.7 24.7 0 0 0 8.88 4.86 24 24 0 0 0 18.86-2.1 28.7 28.7 0 0 0 8.12-6.79 28.28 28.28 0 0 0 5.23-9.15 23.58 23.58 0 0 0-1.39-18.76zm-136.62-120.02a23.46 23.46 0 0 0 3.52-18.52 26 26 0 0 0-4.21-9.37l-11.13-15.91a25.31 25.31 0 0 0-7.26-7 23.48 23.48 0 0 0-8.86-3.38 24.47 24.47 0 0 0-9.61.42 28.11 28.11 0 0 0-9.61 4.44 28.62 28.62 0 0 0-7.47 7.5 24.78 24.78 0 0 0-3.83 9 23.72 23.72 0 0 0 0 9.54 24.68 24.68 0 0 0 4.07 9.27l11.13 15.91a25.35 25.35 0 0 0 7.4 7.14 23.83 23.83 0 0 0 18.78 2.93 28.67 28.67 0 0 0 9.61-4.44 28.25 28.25 0 0 0 7.47-7.53zM685.56 1638a26 26 0 0 0-8.72-5.44l-18.11-7a25.32 25.32 0 0 0-9.95-1.8 23.49 23.49 0 0 0-9.24 2.12 24.43 24.43 0 0 0-7.74 5.7 28.07 28.07 0 0 0-5.51 9 28.63 28.63 0 0 0-2 10.39 24.78 24.78 0 0 0 1.81 9.59 23.73 23.73 0 0 0 5.35 7.9 24.66 24.66 0 0 0 8.54 5.43l18.1 7a25.39 25.39 0 0 0 10.12 1.81 23.83 23.83 0 0 0 17.24-8 28.68 28.68 0 0 0 5.51-9 28.24 28.24 0 0 0 2-10.34 23.46 23.46 0 0 0-7.39-17.34z" transform="translate(-7.43 -7.43)"/><path class="cls-3" d="M1545.25 1194.91a657.44 657.44 0 0 1-1210.74 0q-6.66-15.73-12.45-31.71H95c98.89 374.15 439.7 650 844.93 650s746-275.81 844.93-650H1557.7q-5.8 15.98-12.45 31.71zM251.34 1262a28.1 28.1 0 0 0-10.11 3.14 28.67 28.67 0 0 0-8.4 6.45 24.8 24.8 0 0 0-5 8.39 23.72 23.72 0 0 0-1.21 9.46 24.67 24.67 0 0 0 2.82 9.72l19.89 38.38L237 1344l-19.89-38.38a37.7 37.7 0 0 1-4.32-15.12 38 38 0 0 1 9.65-28 44.05 44.05 0 0 1 13-10 42.6 42.6 0 0 1 15.56-4.79 35.53 35.53 0 0 1 14.69 1.53 36.55 36.55 0 0 1 12.67 7.27 41.55 41.55 0 0 1 9.58 12.4l19.89 38.38-12.37 6.41-19.89-38.38a25.34 25.34 0 0 0-6.27-7.93 23.47 23.47 0 0 0-8.33-4.52 24.46 24.46 0 0 0-9.63-.87zm53.37 161.34a38.14 38.14 0 0 1-14.09-5.21 38.66 38.66 0 0 1-11.55-11.07l-11.13-15.91a37.7 37.7 0 0 1-6.27-14.42 38 38 0 0 1 5.89-29 44 44 0 0 1 11.55-11.62 42.6 42.6 0 0 1 14.79-6.79 35.53 35.53 0 0 1 14.77-.42 36.57 36.57 0 0 1 13.51 5.54 41.54 41.54 0 0 1 11.12 11l11.13 15.91a42.63 42.63 0 0 1 6.75 14.63 35.31 35.31 0 0 1-5 28.34 42.61 42.61 0 0 1-11.36 11.42 44 44 0 0 1-14.88 6.86 38.67 38.67 0 0 1-15.24.75zm65.18 89.41a6.33 6.33 0 0 1-5-2.18 8.91 8.91 0 0 1-2.13-6.69l3.45-79.44-42.92 39.56-9-9.76 53.23-49.09a9.07 9.07 0 0 1 5.78-2.72 6.49 6.49 0 0 1 5.19 2.31 7 7 0 0 1 1.52 2.62 10.69 10.69 0 0 1 .39 3.67l-2.9 79.23 42.91-39.57 9 9.76L375.7 1510a9 9 0 0 1-5.82 2.76zm80.67 56.07a37.52 37.52 0 0 1-14.91-1.33 38.37 38.37 0 0 1-14-7.61l-35.41-29.66 51.22-61.14 35.41 29.66a41.58 41.58 0 0 1 10.13 12.19 36.16 36.16 0 0 1 4.28 14 36.69 36.69 0 0 1-1.74 14.64 41.94 41.94 0 0 1-8 14 44 44 0 0 1-12.59 10.5 39.11 39.11 0 0 1-14.4 4.75zm16.63 26.09l45.81-65.29 11.41 8-45.81 65.29zm62 40.15l-12-7.13 33.7-56.55-26-15.5 7.13-12L596 1582l-7.13 12-26-15.5zm40.5 22.13l35.61-71.37 12.47 6.22-35.61 71.37zm134.48 12.91a44 44 0 0 1-8.54 14 38.66 38.66 0 0 1-12.23 9.08 38.16 38.16 0 0 1-14.6 3.51 38.65 38.65 0 0 1-15.76-2.76l-18.1-7a37.71 37.71 0 0 1-13.24-8.49 38 38 0 0 1-11.28-27.44 44 44 0 0 1 3.12-16.09 42.6 42.6 0 0 1 8.5-13.88 35.54 35.54 0 0 1 12-8.57 36.56 36.56 0 0 1 14.31-2.92 41.57 41.57 0 0 1 15.38 3l18.1 7a42.64 42.64 0 0 1 13.75 8.39 35.33 35.33 0 0 1 11.61 26.33 42.64 42.64 0 0 1-3.02 15.84zm86.57 55.37a9 9 0 0 1-3.29 5.53 6.32 6.32 0 0 1-5.36 1 8.91 8.91 0 0 1-5.5-4.35l-41.48-67.84-13.51 56.78-12.92-3.07 16.76-70.44a9.07 9.07 0 0 1 3.28-5.48 6.5 6.5 0 0 1 5.59-1 7 7 0 0 1 2.73 1.33 10.64 10.64 0 0 1 2.37 2.82l41.82 67.36 13.51-56.78 12.92 3.07zm32.63 11.71l-13.78-2.07 11.83-78.88 13.78 2.07zm103.26 1.68a9 9 0 0 1-2.32 6 6.33 6.33 0 0 1-5.13 1.86 8.91 8.91 0 0 1-6.16-3.37l-52.26-59.93-3.76 58.26-13.25-.87 4.72-72.25a9.07 9.07 0 0 1 2.31-6 6.5 6.5 0 0 1 5.35-1.9 7 7 0 0 1 2.91.85 10.67 10.67 0 0 1 2.81 2.38l52.52 59.39 3.81-58.24 13.25.87zm58 5.08a37.69 37.69 0 0 1-15.58-2.14 38 38 0 0 1-21.73-20.1 44 44 0 0 1-3.93-15.91 42.65 42.65 0 0 1 1.88-16.17 35.55 35.55 0 0 1 7.32-12.83 36.54 36.54 0 0 1 11.76-8.67 41.56 41.56 0 0 1 15.2-3.78l43.14-2.76.89 13.9-43.14 2.76a25.32 25.32 0 0 0-9.79 2.55 23.48 23.48 0 0 0-7.49 5.81 24.44 24.44 0 0 0-4.63 8.43 28.11 28.11 0 0 0-1.2 10.52 28.65 28.65 0 0 0 2.53 10.28 24.83 24.83 0 0 0 5.67 7.94 23.76 23.76 0 0 0 8.17 4.92 24.68 24.68 0 0 0 10 1.34l34-2.18-1.32-20.69-35.91 2.3-.75-11.72 49.93-3.19 3 46.31zm221.72-43.69L1189 1684.5l-36.12 11 3-12.72 23.41-7.1-25.67-23.4-16.88 69.09-15.22 4.62 21.73-86.38a10.62 10.62 0 0 1 1.77-4 6.5 6.5 0 0 1 3.43-2.3 6.28 6.28 0 0 1 4.08 0 11 11 0 0 1 3.63 2.34l66.15 59.73zm54.86-22.49a37.7 37.7 0 0 1-15.37 3.35 38 38 0 0 1-27.32-11.4 44 44 0 0 1-9.16-13.59 42.61 42.61 0 0 1-3.8-15.83 35.53 35.53 0 0 1 2.45-14.57 36.53 36.53 0 0 1 8.06-12.18 41.57 41.57 0 0 1 13-8.78l39.56-17.43 5.62 12.75-39.56 17.43a25.3 25.3 0 0 0-8.31 5.76 23.49 23.49 0 0 0-5 8 24.42 24.42 0 0 0-1.45 9.51 28.07 28.07 0 0 0 2.5 10.29 28.64 28.64 0 0 0 5.91 8.79 24.85 24.85 0 0 0 8.06 5.5 23.76 23.76 0 0 0 9.37 1.81 24.68 24.68 0 0 0 9.88-2.2l39.56-17.43 5.62 12.75zm128.5-69.76l-20.71-10.91-32.2 19.69-.28-13.07 20.87-12.76-30.73-16.19 1 71.11-13.57 8.3-.71-89.07a10.56 10.56 0 0 1 .72-4.3 6.5 6.5 0 0 1 2.74-3.09 6.26 6.26 0 0 1 4-1 11 11 0 0 1 4.1 1.35l79.05 41.16zm78.12-75.49a37.51 37.51 0 0 1-4.09 14.4 38.39 38.39 0 0 1-10.08 12.28l-35.75 29.24-50.5-61.74 35.75-29.24a41.6 41.6 0 0 1 13.87-7.66 36.18 36.18 0 0 1 14.58-1.58 36.74 36.74 0 0 1 14.06 4.45 41.92 41.92 0 0 1 12.29 10.43 44.09 44.09 0 0 1 8 14.32 39.12 39.12 0 0 1 1.87 15.08zm29.92-11.59l-57.54-55.23 49.31-51.37 10.05 9.65-39.73 41.4 37.44 35.93 39.81-41.47 10.05 9.65zm13.77-81.37l8.47 8.13-30.62 31.9-8.47-8.13zm108.29-65.81l-54.34-20.55 28.75 48.75a11 11 0 0 1 1.45 4.64 6.5 6.5 0 0 1-1.37 4.22q-2.9 4-8.45 2.68l-55.22-12.24 36.44 45.25-8 11.1-48.72-60.65q-3.78-4.5-.56-8.94a7.61 7.61 0 0 1 3.39-2.62 7.52 7.52 0 0 1 4.55-.29l60.08 13.2-31.24-53q-2.66-4.37.11-8.19 3-4.08 8.55-2.07l72.73 27.52zm-25.34-118.53l8.47-15.63 23.28 60.9 26.63 14.42-6.64 12.25-26.62-14.42-63.68 13.67 8.93-16.5 47.1-9.8zM334.51 683.63a658.35 658.35 0 0 1 140.87-208.86A658 658 0 0 1 684.24 333.9 655.81 655.81 0 0 1 1307 394.43a661.93 661.93 0 0 1 177.71 177.72A653.9 653.9 0 0 1 1571.26 757h223.48C1710.91 361.87 1360 65.38 939.88 65.38S168.85 361.87 85 757h223.5a651.88 651.88 0 0 1 26.01-73.37zm878.62-453.33l-51.42-16.61 4.41-13.65 51.42 16.61zm401 252l10.1 13.71-78.82 58-10.1-13.71 34.12-25.13-29.1-39.52 12.2-9 29.1 39.52zm-46.52-63.16l10.1 13.71-78.82 58-10.1-13.71zm-82.24-85.53l64.12 64.64-12.09 12-26.06-26.28-57.12 56.66-12-12.09 57.12-56.66-26.06-26.28zm-119.2-56.3a43.47 43.47 0 0 1 16.95-6.23 44.7 44.7 0 0 1 17.82 1.16 50.75 50.75 0 0 1 17.18 8.45L1460.6 312l-10.12 13.69-42.48-31.36a31 31 0 0 0-11.15-5.33 28.72 28.72 0 0 0-11.58-.47 29.9 29.9 0 0 0-11 4.23 34.33 34.33 0 0 0-9.4 8.89 35 35 0 0 0-5.74 11.6 30.29 30.29 0 0 0-.95 11.89 29 29 0 0 0 3.76 11 30.15 30.15 0 0 0 8.33 9.15l33.53 24.79 15.06-20.38-35.37-26.14 8.53-11.54 49.17 36.34-33.68 45.64-47.34-35a46.08 46.08 0 0 1-12.88-14.27 46.4 46.4 0 0 1-4.48-35.91 53.76 53.76 0 0 1 8.86-18 52.09 52.09 0 0 1 14.5-13.57zm-102-84.32a7.94 7.94 0 0 1 6.92.42 8.56 8.56 0 0 1 2.87 2.35 13.06 13.06 0 0 1 2 4l30.57 92 32.2-63.65 14.48 7.32-40.29 79.57q-2.18 4.31-5.48 5.64a7.73 7.73 0 0 1-6.65-.36 10.89 10.89 0 0 1-5.31-6.74l-30-92.43-32.2 63.65-14.48-7.32 39.95-79a11.08 11.08 0 0 1 5.42-5.5zm-113.47-40.77l82.81 26.78-5.24 16.2-66.73-21.56L1142 234l66.86 21.6-5.23 16.21-82.89-26.81zm-138.52-25l69.18 10.68a41.9 41.9 0 0 1 14.33 4.72 30.53 30.53 0 0 1 9.91 8.72 30.89 30.89 0 0 1 5.18 12.13 42.48 42.48 0 0 1 .14 14.95q-1.86 12.06-8.35 19.4a29.62 29.62 0 0 1-16.45 9.47l24.5 33.77-23.85-3.68-20.25-30.53-36-5.56 2.29-14.84 40.15 6.2q9.15 1.41 14.55-2.84t6.86-13.66q1.45-9.41-2.68-14.73t-12.88-6.67l-52.48-8.1-12.33 79.48-16.7-2.58zm-28.3-1.53v17l-37 .08.16 80.45h-17l-.16-80.46-37 .08v-17zM768 159.32a23.32 23.32 0 0 1 4.37-9.43 27.29 27.29 0 0 1 8.47-7.08 37.07 37.07 0 0 1 12.4-4l69.17-10.73 2.59 16.8-69.17 10.73q-5.83.9-8.53 4.51t-1.83 9.17q.86 5.57 4.58 8.11t9.28 1.68l44.13-6.84q14.71-2.28 23.4 3.43t10.87 19.75a33.52 33.52 0 0 1-.11 11.55 24.62 24.62 0 0 1-4.18 9.81 25.74 25.74 0 0 1-8.43 7.34 37.8 37.8 0 0 1-12.86 4.17L780 239.49l-2.61-16.83 72.22-11.2q6.76-1 9.87-5.06a12.13 12.13 0 0 0 2.23-9.71q-1-6.23-5.09-8.78t-10.88-1.5l-44.26 6.86a35.18 35.18 0 0 1-12.57-.15 26.82 26.82 0 0 1-10.16-4.26 25.32 25.32 0 0 1-7.18-7.78 29.15 29.15 0 0 1-3.76-10.68 30 30 0 0 1 .19-11.08zm-124.23 20.87l7.08 15.49-33.66 15.38 33.43 73.18-15.49 7.08-33.43-73.18-33.7 15.38-7-15.52zm-121.45 60.39l14.26-9.3 53.48 82-14.26 9.3-23.15-35.49-41.1 26.81-8.28-12.69 41.1-26.81zm-51.44 33.55l53.48 82-14.26 9.3-53.48-82zm-100.58 102a44.7 44.7 0 0 1 4.52-17.27 50.83 50.83 0 0 1 11.55-15.27l38.88-35.77 11.53 12.53-38.88 35.77a30.93 30.93 0 0 0-7.34 9.94 28.71 28.71 0 0 0-2.65 11.28 29.9 29.9 0 0 0 2.09 11.53 34.35 34.35 0 0 0 6.95 10.92 35 35 0 0 0 10.3 7.83 30.31 30.31 0 0 0 11.49 3.18 29 29 0 0 0 11.55-1.6 30.17 30.17 0 0 0 10.57-6.44l30.69-28.23-17.16-18.65L422 385.65l-9.71-10.56 45-41.39 38.4 41.74-43.33 39.86a46.11 46.11 0 0 1-16.45 9.94 46.41 46.41 0 0 1-36.1-2.41 53.77 53.77 0 0 1-16-12.1 52.07 52.07 0 0 1-10.64-16.81 43.44 43.44 0 0 1-2.87-17.83zm-36.88 21.35l73.33 64.24-11.22 12.81-73.33-64.24zm15.76 68.14l-28.82 40.05-12.08-8.69 28.82-40.05zm-44-36.63l13.82 9.92-38.45 53.44 65.31 47-9.86 13.7-79.13-56.93z" transform="translate(-7.43 -7.43)"/><path class="cls-3" d="M731 599.12c-2.68 20.31-6.68 39.41-26.35 51.52a86.37 86.37 0 0 0-24.29 22c-9.52 13.14-16.71 27.85-31.78 36.17-1.69.94-3 6.46-1.85 8.07a252 252 0 0 0 20.43 26c2.13 2.33 7.07 2.21 10.78 2.89 1.12.21 2.44-.61 3.67-1-.45-1.56-.46-3.49-1.43-4.61-3.28-3.86-7.62-7-10.2-11.24-3.3-5.44-3.07-11.6 2.68-15.65 20.69-14.54 35.1-36.67 58.69-47.87 6.14-2.91 11.71-8.39 15.79-14 5.67-7.79 11.51-16.3 13.92-25.38 2.82-10.65 15.41-9.35 18.38-18.42 5.23 10 15.85.55 22.67 6.47 8.81 7.63 18.59 14.14 27.71 21.43s14.09 16.57 13.68 28.72a48.06 48.06 0 0 0 2.24 17.25c5 14.27 8.7 28.56 6.46 43.84-1 6.84 2.77 9 8.92 9.7 10.92 1.26 21.76 3.29 32.67 4.58 2.66.3 5.51-1 8.26-1.54-1.89-2.27-3.45-5-5.78-6.68a27.57 27.57 0 0 0-8.87-3.94c-11.92-3.19-15.75-11-16.08-23-.57-20.71-2.67-41.39-4.29-62.07-.26-3.16-.72-6.59-2.18-9.33-12.21-22.76-24.55-45.47-37.25-67.95-1.74-3.08-5.5-5.36-8.79-7.17-7.7-4.22-11.45-10.08-10.36-19.07a22.17 22.17 0 0 0-1-9.62c-2.49-7.27-1.74-11.09 7.39-10.46 3.17.22 8.64-1.77 9.51-4.07 5.86-15.68 18.64-26.27 27.88-39.4 8.24-11.73 8.67-11.93 21.36-6.12 20 9.17 39.35 19.8 61.73 22.73 4.86.63 9.5 4 13.95 6.53 12.36 7.14 24.76 14.26 36.79 21.93 9.59 6.1 21.66 9.06 27.29 20.47 13.86.24 14.88 9.51 14.16 20.06-.12 1.94-.38 4.12.33 5.81 10.95 26.09 7.41 53.68 8.31 80.77.23 7-2 14-3.21 21-2.34 13.3-4.79 26.59-7.19 39.87l2 .38v5.85c-.16 21.42-.17 21.44 20.39 28.5 3 1 6.13 2.29 9.25 2.46 3.8.2 7.66-.67 11.5-1.07-2.24-2.93-4.13-6.22-6.79-8.7-2.83-2.62-6.49-4.32-9.57-6.69-9.85-7.62-11.26-11.71-7.69-23.44 1.89-6.19 4.78-12.1 6.4-18.35 2.74-10.59 5.07-21.31 7.14-32.06s2.93-21.8 5.53-32.41c4.8-19.57 11.74-38.41 21.89-56 1.89-3.27 3.68-7.28 3.58-10.9-.32-11.14 4.41-20.39 10.86-28.4 9.3-11.56 20.2-21.81 29.77-33.14 5.45-6.45 9.72-9.64 19.54-7.13 13.74 3.51 18.25-2 18.48-17 .06-3.89.8-8.34-.76-11.58-7.91-16.52-9.34-34.83-15.14-51.88-6.19-18.16-21.06-22.38-35.66-9.58-3.75 3.3-6.16 2.85-10.12 1.85-16.76-4.19-28.16 4.83-26.77 21.66.51 6.23 2.1 13.3 5.69 18.14 6 8 .27 7.62-4.22 6.78-15.59-2.95-26.23 4.3-35.4 15.57a54.24 54.24 0 0 1-8.37 8.18 35.16 35.16 0 0 1-23.31 8c-16.12-.17-29.65-2.71-40.43-17.18-9.76-13.09-18.09-13.24-26.05-1.17-6.52 9.9-12.17 8.42-20.32 4.71-3.45-1.57-7.38-2.15-11.14-2.91-12.06-2.46-24.2-4.63-36.22-7.27-10.8-2.36-11.34-2.74-8.4-12.6 1.72-5.77 1-10.17-3-13.95-6.22-5.85-16.18-7.45-23-1.73-4.71 3.93-6.42 4.22-10.81.27-8.69-7.84-16.53-15.83-21.69-26.78-4.49-9.51-13.31-14-24.33-12.18-8.62 1.48-13.08 7.69-14.76 20.3-.26 1.93-.17 3.89-.29 5.84-.45 7.8-3.79 13.74-11.26 16.77-15.69 6.38-19.77 19.93-20.24 34.73-.3 9.63 1.82 19.32 2.85 29 1.37 12.78 5.78 25.76-1 38.15-4.84 8.9-6.08 18.15-6 28.09.06 5.64-2.08 11.3-3.1 17-1.39 7.53-2.78 15.08-3.78 22.65zm387.49-177.8c.67-1.45 2.61-2.33 4-3.52 1.9 1.32 3.53 2.29 5 3.49 6.72 5.53 9.35 13.17 11.81 21.22 2.27 7.47-1.66 7.45-6.6 6.86-14.7-1.8-20.83-13.72-14.23-28.05zm-74.63 70.62a10.14 10.14 0 0 1 3.61-3.82c.72-.43 2 0 3.07.24l.19.16c-.11.54-.18 1.13-.29 1.68a4.37 4.37 0 0 1-.1.43 2.2 2.2 0 0 1-.1.3 1.94 1.94 0 0 1-.12.28.88.88 0 0 1-.15.26 1.62 1.62 0 0 1-.17.23 27.75 27.75 0 0 1-4.56 3.3c-.52-1-1.72-2.46-1.4-3.07zm-219.25-35.08c.78-4.25.2-8.68 1-12.93 2.57 4.16 5.92 8.06 7.45 12.58 1 3.1.15 7.28-1.06 10.56-.67 1.85-3.71 2.84-5.68 4.23-.56-1.65-1.48-3.24-1.61-4.91-.29-3.16-.1-6.39-.1-9.53zm-28.2-5.14a1.07 1.07 0 0 1 0-.2 5.85 5.85 0 0 1 .11-.61 5.45 5.45 0 0 1 .15-.56.7.7 0 0 1 .06-.17 6.45 6.45 0 0 1 .28-.77h-.2l.35-.37c-.06.12-.11.26-.16.38h.38a4.19 4.19 0 0 1 .56 0 6.62 6.62 0 0 1 .88.12c.27 0 .52.11.77.17h.12a4.85 4.85 0 0 1 .63.22c.23.09.45.2.66.29h.06a4.52 4.52 0 0 1 1.07.77 5.53 5.53 0 0 1 1.26 1.67 4.84 4.84 0 0 1 .26.57 11.15 11.15 0 0 1 .62 4.4c0 .63-1.93 1.91-2.17 1.74-2.82-2-5.74-3.93-5.74-7.24.03-.05.04-.23.06-.41zm-26.87 984.88c9.48 2.67 19.39 5.18 29.12 5.24 11.47.07 17.2 4.91 23.09 14.38 29.2 47 89.79 59.32 134.8 27 13-9.37 23-23 35.84-36.17 50.94 24.79 92.11 21.82 123.59-9.34 34.19-33.85 36.34-72.76 7-132.7 1.55-2.57 3.23-5.4 4.92-8.2 27.67-46.05 14.13-82.25-37-98.19-36.13-11.26-72-8.39-106.78 4.9-28.4 10.84-42.14 40.5-33.13 69.71a145.85 145.85 0 0 0 13.42 30.74c6.07 10.31 5.28 18.07.22 22.45-13.56-8.59-25.24-11.53-33.61-12.58-17.3-2.17-30.23 2.52-41.2-6.48-3.74-3.07-5.41-5.56-7.67-10.23-20.86-43.1-60.65-51.7-97.84-21.72-29.45 23.75-47.37 55-56.57 91-8.12 32.05 9.75 61.12 41.8 70.19zm213-195.42c9.13-17 32.67-19.35 50.39-21.13a123.38 123.38 0 0 1 45.51 4.06 40.42 40.42 0 0 1 18.72 15.69c8 13 7.44 30.37-1.08 45.13-33.63-14.41-67.36-14.82-100.91 5.8a41.18 41.18 0 0 1-13.43-17.38c-.42-1.04-6.9-17.81.81-32.17zM766.9 1371.12a253.82 253.82 0 0 1 22.23-52.39c17.54-31.24 48.94-29.93 67.73 2.9-32.57 19-48.08 48.94-51.2 85.1-34.21 8.66-48.04-3.93-38.76-35.61z" transform="translate(-7.43 -7.43)"/></svg>